<svg xmlns="http://www.w3.org/2000/svg" viewBox="0 0 48 48"><defs><style>.cls-1{fill:#fc6;}.cls-2{fill:#ffde76;}.cls-3{fill:#ffba55;}.cls-4{fill:#dad7e5;}.cls-5{fill:#c6c3d8;}.cls-6{fill:#edebf2;}.cls-7{fill:#425b72;}</style></defs><title>Newsletter</title><g id="Newsletter"><path class="cls-1" d="M21.11,33.66,3,47V19C17.28,30.57,13.32,27.36,21.11,33.66Z"/><polygon class="cls-2" points="21.11 33.66 15 38.16 15 28.72 21.11 33.66"/><path class="cls-3" d="M45,47H3L21.11,33.66l.37.3a4,4,0,0,0,5,0C27.11,33.49,24.86,32.19,45,47Z"/><path class="cls-1" d="M42.28,45H21a6,6,0,0,1-6-6v-.84l6.11-4.5.37.3a4,4,0,0,0,5,0l.37-.3Z"/><path class="cls-2" d="M45,19V47L26.89,33.66Z"/><polygon class="cls-3" points="9 14.14 9 23.86 3 19 9 14.14"/><polygon class="cls-1" points="45 19 39 23.86 39 14.14 45 19"/><path class="cls-4" d="M39,8V23.86L26.52,34a4,4,0,0,1-5,0L9,23.86V1H32V8Z"/><polygon class="cls-5" points="15 26.72 15 28.72 9 23.86 9 21.86 15 26.72"/><path class="cls-4" d="M39,21.86v2L26.52,34a4,4,0,0,1-5,0L15,28.72v-2L21.48,32a4,4,0,0,0,5,0Z"/><path class="cls-6" d="M39,8V21.86L26.52,32a4,4,0,0,1-5,0L15,26.72V1H32V8Z"/><path class="cls-7" d="M23,9H13a1,1,0,0,1,0-2H23A1,1,0,0,1,23,9Z"/><path class="cls-7" d="M27,13H13a1,1,0,0,1,0-2H27A1,1,0,0,1,27,13Z"/><path class="cls-7" d="M27,17H13a1,1,0,0,1,0-2H27A1,1,0,0,1,27,17Z"/><path class="cls-7" d="M17,21H13a1,1,0,0,1,0-2h4A1,1,0,0,1,17,21Z"/><polygon class="cls-5" points="39 8 32 8 32 1 39 8"/><rect class="cls-4" x="33" y="8" width="6" height="1"/><line class="cls-5" x1="32" y1="1" x2="39" y2="8"/><line class="cls-5" x1="32" y1="1" x2="39" y2="8"/><polygon class="cls-1" points="45 45 45 47 42.28 45 45 45"/></g></svg>